# xmcd
#
# Track frame offsets:
#	150
#	19207
#	37519
#	57233
#	72221
#	92139
#	109833
#	124300
#	142139
#	156085
#	174475
#	191735
#	205120
#	223143
#	243674
#
# Disc length: 3500 seconds
#
# Revision: 0
# Processed by: cddbd v1.5.2PL0 Copyright (c) Steve Scherf et al.
# Submitted via: EasyCDDAExtractor 16.0.6.1
#
DISCID=dd0daa0f
DTITLE=Συλλογικός δίσκος - Το ρεμπέτικο τραγούδι στην Αμερική 4
DYEAR=2009
DGENRE=Ρεμπέτικη
TTITLE0=Νικολάου Τάκης - Μπαρμπα Ούζο [1929, Αντώνη Σακελλαρίου]
TTITLE1=Σμυρνιός Λεωνίδας - Ο χωριάτης ντούρου ντούρου [1927, παραδοσιακό]
TTITLE2=Καλούμενος Σταύρος - Η χελώνα [1932, Αντώνη Σακελλαρίου]
TTITLE3=Κατσαρός Γιώργος - Μέσ' στου Μάνθου τον τεκέ [1938, Κώστα Τζόβενου]
TTITLE4=Δούσας Κώστας - Η βασίλισσα [1932, παραδοσιακό]
TTITLE5=Άνευ ερμηνευτού - Τρούμπα [1931, παραδοσιακό, Κ. Μπέζος ή Κωστής Α.]
TTITLE6=Κατσαρός Γιώργος - Πίνω και μαραζώνω [1938, Ανέστη Δελλιά]
TTITLE7=Σμυρνιός Λεωνίδας - Ζεϊμπέκικο ουσάκ [1927, παραδοσιακό]
TTITLE8=Κατσαρός Γιώργος - Εγώ για σένα ξενυχτώ [1938, Γιώργου Κατσαρού]
TTITLE9=Δούσας Κώστας - Η τράτα [1932, παραδοσιακό]
TTITLE10=Άνευ ερμηνευτού - Γκιουζέλ [1935, Τέτου Δημητριάδη, Τα πολιτάκια]
TTITLE11=Κατσαρός Γιώργος - Μού έδωσες την καρδούλα σου [1929, παραδοσιακό]
TTITLE12=Παπαγκίκα Μαρίκα - Φονιάς θα γίνω [1929, παραδοσιακό]
TTITLE13=Κατσαρός Γιώργος - Η σκληρή καρδιά σου [1931, Γιώργου Κατσαρού]
TTITLE14=Παπαγκίκα Μαρίκα - Αχ! Γιατρέ μου [1923, παραδοσιακό]
EXTD=
EXTT0=
EXTT1=
EXTT2=
EXTT3=
EXTT4=
EXTT5=
EXTT6=
EXTT7=
EXTT8=
EXTT9=
EXTT10=
EXTT11=
EXTT12=
EXTT13=
EXTT14=
PLAYORDER=
